<?xml version="1.0" encoding="UTF-8" standalone="no"?>
<!DOCTYPE svg PUBLIC "-//W3C//DTD SVG 1.1//EN"
 "http://www.w3.org/Graphics/SVG/1.1/DTD/svg11.dtd">
<!-- Generated by graphviz version 2.50.0 (0)
 -->
<!-- Pages: 1 -->
<svg width="1712pt" height="479pt"
 viewBox="0.00 0.00 1712.48 479.00" xmlns="http://www.w3.org/2000/svg" xmlns:xlink="http://www.w3.org/1999/xlink">
<g id="graph0" class="graph" transform="scale(1 1) rotate(0) translate(4 475)">
<polygon fill="white" stroke="transparent" points="-4,4 -4,-475 1708.48,-475 1708.48,4 -4,4"/>
<!-- 0 -->
<g id="node1" class="node">
<title>0</title>
<ellipse fill="none" stroke="black" cx="796.49" cy="-453" rx="128.08" ry="18"/>
<text text-anchor="middle" x="796.49" y="-449.3" font-family="Times New Roman,serif" font-size="14.00">Calculated Strength&lt;127.772278</text>
</g>
<!-- 1 -->
<g id="node2" class="node">
<title>1</title>
<ellipse fill="none" stroke="black" cx="662.49" cy="-366" rx="155.17" ry="18"/>
<text text-anchor="middle" x="662.49" y="-362.3" font-family="Times New Roman,serif" font-size="14.00">MagpieData mean Column&lt;2.24154902</text>
</g>
<!-- 0&#45;&gt;1 -->
<g id="edge1" class="edge">
<title>0&#45;&gt;1</title>
<path fill="none" stroke="#0000ff" d="M770.02,-435.21C749.28,-422.05 720.24,-403.63 697.57,-389.25"/>
<polygon fill="#0000ff" stroke="#0000ff" points="699.23,-386.16 688.91,-383.76 695.48,-392.07 699.23,-386.16"/>
<text text-anchor="middle" x="772.99" y="-405.8" font-family="Times New Roman,serif" font-size="14.00">yes, missing</text>
</g>
<!-- 2 -->
<g id="node3" class="node">
<title>2</title>
<ellipse fill="none" stroke="black" cx="931.49" cy="-366" rx="95.58" ry="18"/>
<text text-anchor="middle" x="931.49" y="-362.3" font-family="Times New Roman,serif" font-size="14.00">Grain Size&lt;21.8999996</text>
</g>
<!-- 0&#45;&gt;2 -->
<g id="edge2" class="edge">
<title>0&#45;&gt;2</title>
<path fill="none" stroke="#ff0000" d="M823.17,-435.21C844.19,-421.97 873.69,-403.39 896.6,-388.97"/>
<polygon fill="#ff0000" stroke="#ff0000" points="898.74,-391.76 905.34,-383.47 895.01,-385.84 898.74,-391.76"/>
<text text-anchor="middle" x="879.49" y="-405.8" font-family="Times New Roman,serif" font-size="14.00">no</text>
</g>
<!-- 3 -->
<g id="node4" class="node">
<title>3</title>
<ellipse fill="none" stroke="black" cx="445.49" cy="-279" rx="128.08" ry="18"/>
<text text-anchor="middle" x="445.49" y="-275.3" font-family="Times New Roman,serif" font-size="14.00">Calculated Strength&lt;34.3123627</text>
</g>
<!-- 1&#45;&gt;3 -->
<g id="edge3" class="edge">
<title>1&#45;&gt;3</title>
<path fill="none" stroke="#0000ff" d="M620.65,-348.61C585.12,-334.69 534,-314.67 496.16,-299.84"/>
<polygon fill="#0000ff" stroke="#0000ff" points="497.42,-296.58 486.84,-296.19 494.87,-303.1 497.42,-296.58"/>
<text text-anchor="middle" x="601.99" y="-318.8" font-family="Times New Roman,serif" font-size="14.00">yes, missing</text>
</g>
<!-- 4 -->
<g id="node5" class="node">
<title>4</title>
<ellipse fill="none" stroke="black" cx="663.49" cy="-279" rx="71.49" ry="18"/>
<text text-anchor="middle" x="663.49" y="-275.3" font-family="Times New Roman,serif" font-size="14.00">leaf=25.0936375</text>
</g>
<!-- 1&#45;&gt;4 -->
<g id="edge4" class="edge">
<title>1&#45;&gt;4</title>
<path fill="none" stroke="#ff0000" d="M662.7,-347.8C662.83,-336.16 663.02,-320.55 663.17,-307.24"/>
<polygon fill="#ff0000" stroke="#ff0000" points="666.67,-307.22 663.29,-297.18 659.67,-307.13 666.67,-307.22"/>
<text text-anchor="middle" x="670.49" y="-318.8" font-family="Times New Roman,serif" font-size="14.00">no</text>
</g>
<!-- 5 -->
<g id="node10" class="node">
<title>5</title>
<ellipse fill="none" stroke="black" cx="930.49" cy="-279" rx="107.48" ry="18"/>
<text text-anchor="middle" x="930.49" y="-275.3" font-family="Times New Roman,serif" font-size="14.00">Gd fraction&lt;0.0101720467</text>
</g>
<!-- 2&#45;&gt;5 -->
<g id="edge9" class="edge">
<title>2&#45;&gt;5</title>
<path fill="none" stroke="#0000ff" d="M931.29,-347.8C931.15,-336.16 930.97,-320.55 930.81,-307.24"/>
<polygon fill="#0000ff" stroke="#0000ff" points="934.31,-307.13 930.7,-297.18 927.31,-307.22 934.31,-307.13"/>
<text text-anchor="middle" x="965.99" y="-318.8" font-family="Times New Roman,serif" font-size="14.00">yes, missing</text>
</g>
<!-- 6 -->
<g id="node11" class="node">
<title>6</title>
<ellipse fill="none" stroke="black" cx="1238.49" cy="-279" rx="64.19" ry="18"/>
<text text-anchor="middle" x="1238.49" y="-275.3" font-family="Times New Roman,serif" font-size="14.00">Y&lt;3.79999995</text>
</g>
<!-- 2&#45;&gt;6 -->
<g id="edge10" class="edge">
<title>2&#45;&gt;6</title>
<path fill="none" stroke="#ff0000" d="M982.88,-350.77C1038.75,-335.3 1127.67,-310.68 1184.54,-294.94"/>
<polygon fill="#ff0000" stroke="#ff0000" points="1185.71,-298.25 1194.42,-292.2 1183.85,-291.5 1185.71,-298.25"/>
<text text-anchor="middle" x="1110.49" y="-318.8" font-family="Times New Roman,serif" font-size="14.00">no</text>
</g>
<!-- 7 -->
<g id="node6" class="node">
<title>7</title>
<ellipse fill="none" stroke="black" cx="227.49" cy="-192" rx="128.08" ry="18"/>
<text text-anchor="middle" x="227.49" y="-188.3" font-family="Times New Roman,serif" font-size="14.00">Calculated Strength&lt;33.1891899</text>
</g>
<!-- 3&#45;&gt;7 -->
<g id="edge5" class="edge">
<title>3&#45;&gt;7</title>
<path fill="none" stroke="#0000ff" d="M404.23,-261.91C368.5,-247.98 316.68,-227.77 278.38,-212.84"/>
<polygon fill="#0000ff" stroke="#0000ff" points="279.54,-209.54 268.96,-209.17 277,-216.06 279.54,-209.54"/>
<text text-anchor="middle" x="384.99" y="-231.8" font-family="Times New Roman,serif" font-size="14.00">yes, missing</text>
</g>
<!-- 8 -->
<g id="node7" class="node">
<title>8</title>
<ellipse fill="none" stroke="black" cx="445.49" cy="-192" rx="71.49" ry="18"/>
<text text-anchor="middle" x="445.49" y="-188.3" font-family="Times New Roman,serif" font-size="14.00">leaf=20.2199039</text>
</g>
<!-- 3&#45;&gt;8 -->
<g id="edge6" class="edge">
<title>3&#45;&gt;8</title>
<path fill="none" stroke="#ff0000" d="M445.49,-260.8C445.49,-249.16 445.49,-233.55 445.49,-220.24"/>
<polygon fill="#ff0000" stroke="#ff0000" points="448.99,-220.18 445.49,-210.18 441.99,-220.18 448.99,-220.18"/>
<text text-anchor="middle" x="452.49" y="-231.8" font-family="Times New Roman,serif" font-size="14.00">no</text>
</g>
<!-- 13 -->
<g id="node8" class="node">
<title>13</title>
<ellipse fill="none" stroke="black" cx="71.49" cy="-105" rx="71.49" ry="18"/>
<text text-anchor="middle" x="71.49" y="-101.3" font-family="Times New Roman,serif" font-size="14.00">leaf=13.4138184</text>
</g>
<!-- 7&#45;&gt;13 -->
<g id="edge7" class="edge">
<title>7&#45;&gt;13</title>
<path fill="none" stroke="#0000ff" d="M191.51,-174.58C179.6,-168.93 166.37,-162.41 154.49,-156 138.06,-147.14 120.28,-136.56 105.41,-127.43"/>
<polygon fill="#0000ff" stroke="#0000ff" points="106.91,-124.24 96.56,-121.95 103.22,-130.19 106.91,-124.24"/>
<text text-anchor="middle" x="188.99" y="-144.8" font-family="Times New Roman,serif" font-size="14.00">yes, missing</text>
</g>
<!-- 14 -->
<g id="node9" class="node">
<title>14</title>
<ellipse fill="none" stroke="black" cx="227.49" cy="-105" rx="66.89" ry="18"/>
<text text-anchor="middle" x="227.49" y="-101.3" font-family="Times New Roman,serif" font-size="14.00">leaf=4.9666667</text>
</g>
<!-- 7&#45;&gt;14 -->
<g id="edge8" class="edge">
<title>7&#45;&gt;14</title>
<path fill="none" stroke="#ff0000" d="M227.49,-173.8C227.49,-162.16 227.49,-146.55 227.49,-133.24"/>
<polygon fill="#ff0000" stroke="#ff0000" points="230.99,-133.18 227.49,-123.18 223.99,-133.18 230.99,-133.18"/>
<text text-anchor="middle" x="234.49" y="-144.8" font-family="Times New Roman,serif" font-size="14.00">no</text>
</g>
<!-- 9 -->
<g id="node12" class="node">
<title>9</title>
<ellipse fill="none" stroke="black" cx="769.49" cy="-192" rx="94.48" ry="18"/>
<text text-anchor="middle" x="769.49" y="-188.3" font-family="Times New Roman,serif" font-size="14.00">Interant f electrons&lt;9.5</text>
</g>
<!-- 5&#45;&gt;9 -->
<g id="edge11" class="edge">
<title>5&#45;&gt;9</title>
<path fill="none" stroke="#0000ff" d="M895.71,-261.93C883.53,-256.14 869.82,-249.45 857.49,-243 840.31,-234.01 821.59,-223.49 805.85,-214.41"/>
<polygon fill="#0000ff" stroke="#0000ff" points="807.37,-211.25 796.97,-209.26 803.86,-217.3 807.37,-211.25"/>
<text text-anchor="middle" x="891.99" y="-231.8" font-family="Times New Roman,serif" font-size="14.00">yes, missing</text>
</g>
<!-- 10 -->
<g id="node13" class="node">
<title>10</title>
<ellipse fill="none" stroke="black" cx="930.49" cy="-192" rx="38.19" ry="18"/>
<text text-anchor="middle" x="930.49" y="-188.3" font-family="Times New Roman,serif" font-size="14.00">Y&lt;4.25</text>
</g>
<!-- 5&#45;&gt;10 -->
<g id="edge12" class="edge">
<title>5&#45;&gt;10</title>
<path fill="none" stroke="#ff0000" d="M930.49,-260.8C930.49,-249.16 930.49,-233.55 930.49,-220.24"/>
<polygon fill="#ff0000" stroke="#ff0000" points="933.99,-220.18 930.49,-210.18 926.99,-220.18 933.99,-220.18"/>
<text text-anchor="middle" x="937.49" y="-231.8" font-family="Times New Roman,serif" font-size="14.00">no</text>
</g>
<!-- 11 -->
<g id="node20" class="node">
<title>11</title>
<ellipse fill="none" stroke="black" cx="1238.49" cy="-192" rx="146.77" ry="18"/>
<text text-anchor="middle" x="1238.49" y="-188.3" font-family="Times New Roman,serif" font-size="14.00">MagpieData maximum Number&lt;27.5</text>
</g>
<!-- 6&#45;&gt;11 -->
<g id="edge19" class="edge">
<title>6&#45;&gt;11</title>
<path fill="none" stroke="#0000ff" d="M1238.49,-260.8C1238.49,-249.16 1238.49,-233.55 1238.49,-220.24"/>
<polygon fill="#0000ff" stroke="#0000ff" points="1241.99,-220.18 1238.49,-210.18 1234.99,-220.18 1241.99,-220.18"/>
<text text-anchor="middle" x="1272.99" y="-231.8" font-family="Times New Roman,serif" font-size="14.00">yes, missing</text>
</g>
<!-- 12 -->
<g id="node21" class="node">
<title>12</title>
<ellipse fill="none" stroke="black" cx="1474.49" cy="-192" rx="71.49" ry="18"/>
<text text-anchor="middle" x="1474.49" y="-188.3" font-family="Times New Roman,serif" font-size="14.00">leaf=19.6173916</text>
</g>
<!-- 6&#45;&gt;12 -->
<g id="edge20" class="edge">
<title>6&#45;&gt;12</title>
<path fill="none" stroke="#ff0000" d="M1276.41,-264.34C1316.96,-249.74 1381.38,-226.54 1425.69,-210.58"/>
<polygon fill="#ff0000" stroke="#ff0000" points="1426.87,-213.87 1435.1,-207.19 1424.5,-207.29 1426.87,-213.87"/>
<text text-anchor="middle" x="1378.49" y="-231.8" font-family="Times New Roman,serif" font-size="14.00">no</text>
</g>
<!-- 15 -->
<g id="node14" class="node">
<title>15</title>
<ellipse fill="none" stroke="black" cx="496.49" cy="-105" rx="183.87" ry="18"/>
<text text-anchor="middle" x="496.49" y="-101.3" font-family="Times New Roman,serif" font-size="14.00">MagpieData avg_dev NdValence&lt;0.0236489996</text>
</g>
<!-- 9&#45;&gt;15 -->
<g id="edge13" class="edge">
<title>9&#45;&gt;15</title>
<path fill="none" stroke="#0000ff" d="M722.56,-176.39C677.26,-162.28 608.38,-140.84 558.56,-125.32"/>
<polygon fill="#0000ff" stroke="#0000ff" points="559.45,-121.94 548.86,-122.31 557.37,-128.62 559.45,-121.94"/>
<text text-anchor="middle" x="683.99" y="-144.8" font-family="Times New Roman,serif" font-size="14.00">yes, missing</text>
</g>
<!-- 16 -->
<g id="node15" class="node">
<title>16</title>
<ellipse fill="none" stroke="black" cx="769.49" cy="-105" rx="71.49" ry="18"/>
<text text-anchor="middle" x="769.49" y="-101.3" font-family="Times New Roman,serif" font-size="14.00">leaf=1.47500002</text>
</g>
<!-- 9&#45;&gt;16 -->
<g id="edge14" class="edge">
<title>9&#45;&gt;16</title>
<path fill="none" stroke="#ff0000" d="M769.49,-173.8C769.49,-162.16 769.49,-146.55 769.49,-133.24"/>
<polygon fill="#ff0000" stroke="#ff0000" points="772.99,-133.18 769.49,-123.18 765.99,-133.18 772.99,-133.18"/>
<text text-anchor="middle" x="776.49" y="-144.8" font-family="Times New Roman,serif" font-size="14.00">no</text>
</g>
<!-- 17 -->
<g id="node18" class="node">
<title>17</title>
<ellipse fill="none" stroke="black" cx="930.49" cy="-105" rx="71.49" ry="18"/>
<text text-anchor="middle" x="930.49" y="-101.3" font-family="Times New Roman,serif" font-size="14.00">leaf=39.0896339</text>
</g>
<!-- 10&#45;&gt;17 -->
<g id="edge17" class="edge">
<title>10&#45;&gt;17</title>
<path fill="none" stroke="#0000ff" d="M930.49,-173.8C930.49,-162.16 930.49,-146.55 930.49,-133.24"/>
<polygon fill="#0000ff" stroke="#0000ff" points="933.99,-133.18 930.49,-123.18 926.99,-133.18 933.99,-133.18"/>
<text text-anchor="middle" x="964.99" y="-144.8" font-family="Times New Roman,serif" font-size="14.00">yes, missing</text>
</g>
<!-- 18 -->
<g id="node19" class="node">
<title>18</title>
<ellipse fill="none" stroke="black" cx="1091.49" cy="-105" rx="71.49" ry="18"/>
<text text-anchor="middle" x="1091.49" y="-101.3" font-family="Times New Roman,serif" font-size="14.00">leaf=27.1321449</text>
</g>
<!-- 10&#45;&gt;18 -->
<g id="edge18" class="edge">
<title>10&#45;&gt;18</title>
<path fill="none" stroke="#ff0000" d="M957.07,-178.8C971.01,-172.27 988.3,-163.95 1003.49,-156 1020.94,-146.88 1039.96,-136.17 1055.85,-127"/>
<polygon fill="#ff0000" stroke="#ff0000" points="1057.91,-129.85 1064.8,-121.81 1054.39,-123.8 1057.91,-129.85"/>
<text text-anchor="middle" x="1037.49" y="-144.8" font-family="Times New Roman,serif" font-size="14.00">no</text>
</g>
<!-- 21 -->
<g id="node16" class="node">
<title>21</title>
<ellipse fill="none" stroke="black" cx="415.49" cy="-18" rx="71.49" ry="18"/>
<text text-anchor="middle" x="415.49" y="-14.3" font-family="Times New Roman,serif" font-size="14.00">leaf=21.1499996</text>
</g>
<!-- 15&#45;&gt;21 -->
<g id="edge15" class="edge">
<title>15&#45;&gt;21</title>
<path fill="none" stroke="#0000ff" d="M477.73,-86.88C471.79,-81.29 465.26,-74.98 459.49,-69 451.79,-61.01 443.67,-51.98 436.54,-43.82"/>
<polygon fill="#0000ff" stroke="#0000ff" points="438.98,-41.28 429.79,-36.01 433.68,-45.86 438.98,-41.28"/>
<text text-anchor="middle" x="493.99" y="-57.8" font-family="Times New Roman,serif" font-size="14.00">yes, missing</text>
</g>
<!-- 22 -->
<g id="node17" class="node">
<title>22</title>
<ellipse fill="none" stroke="black" cx="576.49" cy="-18" rx="71.49" ry="18"/>
<text text-anchor="middle" x="576.49" y="-14.3" font-family="Times New Roman,serif" font-size="14.00">leaf=30.6408062</text>
</g>
<!-- 15&#45;&gt;22 -->
<g id="edge16" class="edge">
<title>15&#45;&gt;22</title>
<path fill="none" stroke="#ff0000" d="M512.68,-86.8C524.55,-74.19 540.81,-56.92 553.94,-42.96"/>
<polygon fill="#ff0000" stroke="#ff0000" points="556.57,-45.28 560.87,-35.6 551.47,-40.48 556.57,-45.28"/>
<text text-anchor="middle" x="548.49" y="-57.8" font-family="Times New Roman,serif" font-size="14.00">no</text>
</g>
<!-- 19 -->
<g id="node22" class="node">
<title>19</title>
<ellipse fill="none" stroke="black" cx="1238.49" cy="-105" rx="57.69" ry="18"/>
<text text-anchor="middle" x="1238.49" y="-101.3" font-family="Times New Roman,serif" font-size="14.00">leaf=11.4375</text>
</g>
<!-- 11&#45;&gt;19 -->
<g id="edge21" class="edge">
<title>11&#45;&gt;19</title>
<path fill="none" stroke="#0000ff" d="M1238.49,-173.8C1238.49,-162.16 1238.49,-146.55 1238.49,-133.24"/>
<polygon fill="#0000ff" stroke="#0000ff" points="1241.99,-133.18 1238.49,-123.18 1234.99,-133.18 1241.99,-133.18"/>
<text text-anchor="middle" x="1272.99" y="-144.8" font-family="Times New Roman,serif" font-size="14.00">yes, missing</text>
</g>
<!-- 20 -->
<g id="node23" class="node">
<title>20</title>
<ellipse fill="none" stroke="black" cx="1509.49" cy="-105" rx="194.97" ry="18"/>
<text text-anchor="middle" x="1509.49" y="-101.3" font-family="Times New Roman,serif" font-size="14.00">MagpieData mean MendeleevNumber&lt;68.4701233</text>
</g>
<!-- 11&#45;&gt;20 -->
<g id="edge22" class="edge">
<title>11&#45;&gt;20</title>
<path fill="none" stroke="#ff0000" d="M1289.47,-175.01C1334.36,-160.93 1399.88,-140.38 1447.74,-125.37"/>
<polygon fill="#ff0000" stroke="#ff0000" points="1448.87,-128.68 1457.36,-122.35 1446.78,-122 1448.87,-128.68"/>
<text text-anchor="middle" x="1397.49" y="-144.8" font-family="Times New Roman,serif" font-size="14.00">no</text>
</g>
<!-- 23 -->
<g id="node24" class="node">
<title>23</title>
<ellipse fill="none" stroke="black" cx="1428.49" cy="-18" rx="71.49" ry="18"/>
<text text-anchor="middle" x="1428.49" y="-14.3" font-family="Times New Roman,serif" font-size="14.00">leaf=26.9324856</text>
</g>
<!-- 20&#45;&gt;23 -->
<g id="edge23" class="edge">
<title>20&#45;&gt;23</title>
<path fill="none" stroke="#0000ff" d="M1490.73,-86.88C1484.79,-81.29 1478.26,-74.98 1472.49,-69 1464.79,-61.01 1456.67,-51.98 1449.54,-43.82"/>
<polygon fill="#0000ff" stroke="#0000ff" points="1451.98,-41.28 1442.79,-36.01 1446.68,-45.86 1451.98,-41.28"/>
<text text-anchor="middle" x="1506.99" y="-57.8" font-family="Times New Roman,serif" font-size="14.00">yes, missing</text>
</g>
<!-- 24 -->
<g id="node25" class="node">
<title>24</title>
<ellipse fill="none" stroke="black" cx="1589.49" cy="-18" rx="71.49" ry="18"/>
<text text-anchor="middle" x="1589.49" y="-14.3" font-family="Times New Roman,serif" font-size="14.00">leaf=7.82500029</text>
</g>
<!-- 20&#45;&gt;24 -->
<g id="edge24" class="edge">
<title>20&#45;&gt;24</title>
<path fill="none" stroke="#ff0000" d="M1525.68,-86.8C1537.55,-74.19 1553.81,-56.92 1566.94,-42.96"/>
<polygon fill="#ff0000" stroke="#ff0000" points="1569.57,-45.28 1573.87,-35.6 1564.47,-40.48 1569.57,-45.28"/>
<text text-anchor="middle" x="1561.49" y="-57.8" font-family="Times New Roman,serif" font-size="14.00">no</text>
</g>
</g>
</svg>
